<?xml version="1.0" encoding="UTF-8" standalone="no"?>
<svg
   xmlns:dc="http://purl.org/dc/elements/1.1/"
   xmlns:cc="http://creativecommons.org/ns#"
   xmlns:rdf="http://www.w3.org/1999/02/22-rdf-syntax-ns#"
   xmlns:svg="http://www.w3.org/2000/svg"
   xmlns="http://www.w3.org/2000/svg"
   width="385.31079mm"
   height="100.57786mm"
   viewBox="0 0 385.31079 100.57786"
   version="1.1"
   id="svg8">
  <defs
     id="defs2" />
  <metadata
     id="metadata5">
    <rdf:RDF>
      <cc:Work
         rdf:about="">
        <dc:format>image/svg+xml</dc:format>
        <dc:type
           rdf:resource="http://purl.org/dc/dcmitype/StillImage" />
        <dc:title></dc:title>
      </cc:Work>
    </rdf:RDF>
  </metadata>
  <g
     id="layer1"
     transform="translate(102.9208,39.728727)">
    <path
       style="fill:#000000;fill-opacity:1;stroke:none;stroke-width:0.64256;stroke-opacity:1"
       d="m 282.37398,58.250802 h -3.22152 -3.22152 l -1.2192,0.76141 -1.2192,0.7614 -2.54135,-0.7614 c -1.39773,-0.41878 -3.20791,-0.76141 -4.0226,-0.76141 h -1.48125 l -1.23311,1.11595 -1.23311,1.11595 -0.81721,-1.1176 -0.81721,-1.11761 -2.01628,0.40326 -2.01626,0.40325 v -1.25343 -1.25343 l 1.58775,-1.49162 1.58775,-1.49161 0.69432,-2.10383 0.69433,-2.10383 0.45585,-8.14557 0.45584,-8.14557 -1.59045,-5.7201 -1.59044,-5.7201 h -0.88635 -0.88636 l -0.33636,1.28624 -0.33636,1.28625 -2.01308,0.52075 -2.01308,0.52076 -0.51381,4.13668 -0.51382,4.13667 0.38675,7.38944 c 0.2127,4.06418 0.70078,8.64085 1.08462,10.17038 l 0.69788,2.78094 1.19622,0.74705 c 0.65793,0.41089 1.19624,1.11124 1.19624,1.55634 v 0.80927 l -0.8032,-0.16064 -0.8032,-0.16064 0.21341,1.51885 0.21341,1.51885 -6.31772,-0.42892 -6.31773,-0.42893 -2.89152,0.59805 c -1.59034,0.32893 -3.33339,0.78453 -3.87344,1.01244 l -0.98193,0.41439 -0.75122,-0.75207 -0.75232,-0.75233 -4.47157,-0.0978 -4.47157,-0.0978 -1.02076,-0.84716 -1.02075,-0.84716 -2.92352,0.73615 -2.92351,0.73615 -2.6235,-0.70644 -2.62351,-0.70643 -2.64783,0.20777 -2.64784,0.20776 -0.83963,1.12448 c -1.04012,1.39297 -2.2779,1.43678 -3.37128,0.11933 l -0.8342,-1.00514 -1.42804,0.35841 -1.42803,0.35842 -1.83244,-0.95571 -1.83245,-0.95571 -2.31371,-0.004 c -1.27254,-0.002 -3.23907,0.31863 -4.37008,0.7129 l -2.05636,0.71685 -0.4264,-0.42639 -0.42639,-0.42639 0.79648,-1.09366 c 0.43806,-0.60151 1.37024,-2.29799 2.07151,-3.76995 l 1.27504,-2.6763 0.70227,-8.5685 0.70227,-8.56849 -0.40796,-6.4256 c -0.22437,-3.53408 -0.568,-7.32675 -0.76361,-8.42817 l -0.35566,-2.00258 -3.90834,-0.4085 -3.90835,-0.4085 -1.05697,0.95654 -1.05697,0.95655 -0.74123,-0.74123 -0.74123,-0.74123 -0.37485,0.9768 -0.37483,0.97682 1.30198,7.61123 1.30197,7.61123 -0.90456,0.99952 -0.90455,0.99953 0.58451,6.7445 c 0.32149,3.70949 0.76679,7.61197 0.98957,8.67219 l 0.40505,1.92768 1.28307,1.39819 1.28306,1.39819 -0.45349,0.73377 -0.45349,0.73377 -2.02343,-0.15694 c -1.11289,-0.0863 -2.67402,0.0386 -3.46918,0.27765 -0.79517,0.23901 -2.02407,0.59862 -2.73088,0.79915 l -1.28512,0.36458 v -0.96003 -0.96002 l -1.12448,-0.25493 -1.12448,-0.25493 -1.83302,0.901 -1.83302,0.90099 -1.70106,-0.67533 -1.70105,-0.67534 -12.85119,0.0576 -12.85119,0.0576 -0.43429,0.68856 -0.43429,0.68857 -4.69658,-0.72696 -4.69658,-0.72697 -1.02404,0.92676 c -1.31023,1.18563 -1.88669,1.1743 -1.88669,-0.0372 v -0.96384 h -0.65128 c -0.3582,0 -1.21844,0.3542 -1.91164,0.78711 l -1.26036,0.78711 -0.70295,-0.70294 -0.70294,-0.70294 2.29082,-2.49377 2.29081,-2.49376 0.31133,-1.92768 c 0.17123,-1.06022 0.42133,-5.68665 0.55578,-10.28095 l 0.24446,-8.35328 -1.65777,-5.46175 -1.65776,-5.46176 -0.02,-5.94371 -0.02,-5.9437104 -0.48192,3e-5 c -0.26505,2e-5 -0.48565,0.50606 -0.49021,1.12452 -0.012,1.6272004 -2.47267,9.2385104 -3.31477,10.2531804 l -0.71542,0.86203 0.41012,0.41013 0.41014,0.41013 1.57062,-0.71563 1.57063,-0.71562 -0.1486,2.37828 -0.14861,2.37829 -2.0666,0.20171 -2.06661,0.2017 -1.00628,1.94594 -1.00628,1.94594 -0.4398,5.24179 -0.4398,5.24179 0.49999,4.49791 c 0.5742,5.16564 1.93753,9.66691 3.42601,11.31168 l 1.02921,1.13725 -0.3912,0.63298 -0.3912,0.63297 -4.84353,-0.36632 -4.84355,-0.36632 -3.5327,0.84749 c -1.94299,0.46612 -3.690588,1.10293 -3.883548,1.41515 l -0.35083,0.56766 -1.59881,-1.04758 -1.59881,-1.04758 -0.93733,0.35969 -0.93734,0.35968 -1.25971,-0.7867 -1.25972,-0.7867 -1.19701,0.74754 -1.197,0.74754 -1.023,-1.02299 -1.02298,-1.02299 -3.53212,0.79045 -3.5321,0.79046 -1.2738,-0.68173 -1.27381,-0.68172 h -3.25508 -3.25503 v -0.59902 c 0,-0.3296 0.5973,-0.78884 1.32734,-1.02054 0.73003,-0.23171 2.32036,-1.29318 3.53407,-2.35882 l 2.20675,-1.93755 v -10.08955 -10.08955 l -1.6276,-2.20609 -1.6276,-2.20609 0.71998,-0.23999 c 0.39599,-0.132 1.04167,0.0817 1.43483,0.47485 0.39317,0.39316 0.94617,0.71485 1.2289,0.71485 h 0.51405 v -1.63983 -1.63982 l -1.92768,-0.67199 c -1.06023,-0.3696 -1.92768,-0.93286 -1.92768,-1.2517 v -0.5797 h 1.6064 1.6064 v -0.88352 c 0,-0.48593 -0.18072,-1.78712 -0.4016,-2.89152 l -0.4016,-2.00799 -3.6144,-0.0674 -3.6144,-0.0674 2.44449,-0.75853 2.44449,-0.75854 -2.73862,-1.53919 -2.73863,-1.5392004 0.74579,-0.24859 c 0.41018,-0.13673 2.06728,0.33596 3.68244,1.0504304 l 2.93665,1.29902 -0.38875,-4.3077304 c -0.21381,-2.3692398 -0.51913,-4.7175098 -0.67849,-5.2183598 l -0.28974,-0.91064 -0.75001,0.75 c -0.4125,0.4125 -0.97225,0.75001 -1.24389,0.75001 h -0.49388 l 0.36986,-0.96384 0.36986,-0.96384 h -0.90407 c -0.49725,0 -1.08811,0.8294557 -1.67981,1.0370608 l -0.57527,0.2018436 0.13392,-0.6868844 0.40119,-1.05437998 -3.22257,-0.82591 -3.22257,-0.82592002 0.34328,-0.55544 0.34329,-0.55544 1.32824,0.42156 1.32824,0.42157 -0.44613,-1.1626 -0.44613,-1.16261 c 0.90788,-0.2704453 0.93257,0.6577298 1.27536,1.15419 l 1.27535,1.15417 1.88111,-0.93842 0.92895,0.1306681 c 0.34268,0.3423089 0.30895,0.1333743 0.40605,0.4756832 l -0.0784,0.84317872 0.7175,0.0964 c 0.39463,0.053 1.04736,0.1253 1.45052,0.16064 l 0.733,0.0643 0.1112,-11.07160982 c 0.0612,-6.089383 0.27158,-11.18348 0.40971,-11.370123 1.3478,-1.821261 0.71257,1.98222 1.47854,6.20131 l 1.18004,6.49983 0.51214,-0.915146 0.51214,-0.915147 0.43601,-10.597816 0.43601,-10.597815 0.71442,-0.441532 c 0.39292,-0.242841 0.91724,-0.316172 1.16515,-0.162955 0.5386,0.332873 1.10309,9.433321 1.51197,24.3751688 0.16441,6.007935 0.30987,10.955705 0.32326,10.995045 0.0134,0.0393 0.77067,-0.0711 1.68284,-0.24551 l 1.6585,-0.31703998 0.54973,-1.36089 0.54973,-1.36089002 0.0407,1.17371002 0.0407,1.17371 2.08832,-0.11433 c 1.14858,-0.0629 2.37747,-0.0806 2.73088,-0.0394 l 0.64256,0.0749 -0.96384,0.63270998 -0.96384,0.63273 0.74184,0.48192 0.74184,0.48192 -2.9908,0.0472 -2.9908,0.0472 -1.76704,0.74005 -1.76703,0.74005 -6e-5,3.0680598 -6e-5,3.0680604 4.87873,-0.32432 4.87873,-0.3243304 0.27006,0.4369704 0.27007,0.43697 -3.3817,0.97106 c -1.85994,0.53408 -4.17686,1.16533 -5.14874,1.40277 l -1.76703,0.43172 0.004,1.69738 c 0.002,0.93355 0.30377,2.77829 0.67067,4.09941 l 0.66709,2.40204 1.257,0.67273 1.25701,0.67273 v 1.13399 c 0,0.6237 0.32438,1.45839 0.72086,1.85487 l 0.72085,0.72085 0.82118,-0.31511 0.82117,-0.31512 0.75676,2.29301 c 0.41622,1.26115 0.87966,2.29301 1.02987,2.29301 0.38504,0 5.04078,-5.16781 5.31675,-5.90151 0.12526,-0.33304 -0.28035,-0.97707 -0.90137,-1.43117 l -1.12913,-0.82564 0.45737,-0.74004 0.45708,-0.74 h 1.85183 c 1.018508,0 1.987068,-0.2188 2.152348,-0.48623 0.16527,-0.26742 -0.6807,-1.93004 -1.879938,-3.69472 -2.8083,-4.13239 -2.7895,-4.99571 0.0489,-2.24464 l 2.248958,2.17977 v -0.75904 c 0,-0.41748 -0.89833,-3.438 -1.996268,-6.7122904 l -1.9963,-5.9532298 0.43156,-9.31712 0.43157,-9.3171098 0.62762,-0.637188 0.62763,-0.637188 0.598768,0.958468 c 0.72069,1.153651 1.37651,4.449082 3.30542,16.60959782 l 1.46337,9.22553018 0.8031,1.05542 0.80311,1.05542 0.0204,-1.44576 0.0204,-1.4457604 h 1.23157 1.23157 l 0.23456,0.7036504 0.23455,0.70366 2.30783,-1.3616604 2.30783,-1.36166 1.13356,-2.9681698 1.13355,-2.96816 -1.05215,-3.33782 c -0.57869,-1.8358 -1.05025,-3.74613 -1.04792,-4.24518 l 0.004,-0.90737 1.1923,1.80834 1.1923,1.80833 0.40987,-2.04929 c 0.22516,-1.12711 0.40959,-3.42798 0.40959,-5.113027 v -3.0637298 l 0.88554,-0.339818 0.88554,-0.339811 0.72086,0.720855 c 0.39647,0.396479 0.72512,1.169048 0.73033,1.71683 l 0.009,0.995967 0.8127,-1.606399 0.81271,-1.606399 h 1.26614 1.26614 l -0.23895,7.2287918 -0.23894,7.2288 h 0.54002 c 0.29701,0 2.06716,-1.50816998 3.93366,-3.35149 l 3.39367,-3.35149 v 0.83688 c 0,0.46028 -1.46438,2.95517 -3.25417,5.54421002 l -3.25418,4.70732998 -0.0485,1.8232798 c -0.0632,2.37466 0.51866,5.1347304 2.44987,11.6223004 l 1.57803,5.30112 h 0.54385 c 0.29912,0 1.88016,-1.56416 3.51342,-3.47592 l 2.96961,-3.47592 v -1.30536 c 0,-0.71794 -0.28323,-1.4804 -0.6294,-1.69434 l -0.6294,-0.38899 0.76151,-1.21939 0.76152,-1.21938 -1.13781,-1.25727 -1.13782,-1.2572804 0.68442,-0.42299 0.68442,-0.42299 v -6.8417098 -6.8417 l -2.4096,-2.09132 c -1.32528,-1.150216 -3.63012,-2.7219678 -5.12188,-3.4927758 l -2.71228,-1.401467 0.34206,-0.553463 0.34206,-0.553462 1.72767,0.399646 c 0.95021,0.219807 2.93575,1.088329 4.41231,1.930037 1.47656,0.841715 2.8363,1.5303898 3.02163,1.5303898 0.18533,0 0.21968,-0.9267498 0.0763,-2.0594538 -0.14336,-1.132698 -0.31391,-4.476063 -0.37901,-7.429697 l -0.11836,-5.370244 0.70974,-0.709743 0.70974,-0.709743 0.31298,0.910647 c 0.17212,0.500855 0.60978,2.500981 0.97256,4.444723 0.36278,1.943742 1.38499,7.003899 2.27159,11.2447908 0.88659,4.240895 1.62381,9.01189502 1.63827,10.602235 l 0.0263,2.89151 0.54454,-0.96383 c 0.29951,-0.53012 0.743,-3.85535998 0.98554,-7.38944 0.24254,-3.53408 0.78386,-8.1382268 1.20294,-10.2314418 l 0.76198,-3.805841 0.72139,-0.23643 0.72138,-0.236423 0.39432,1.472033 c 0.21687,0.809619 0.39827,3.695893 0.40309,6.413946 l 0.009,4.9419168 0.64256,0.39712 0.64256,0.39712 0.0251,-0.84111 c 0.0138,-0.46262 0.452,0.14237 0.9737,1.34442 0.52171,1.20205 1.04602,2.06951 1.16516,1.92768 0.11913,-0.14183 -0.36985,-4.23109 -1.08661,-9.0872538 l -1.30321,-8.829378 0.44489,-0.444895 0.44489,-0.444894 0.66952,0.669512 c 0.36823,0.368233 1.94021,4.359446 3.49327,8.869359 3.01455,8.7538398 3.52651,9.8161798 3.52651,7.3176098 0,-0.87174 0.29522,-1.8802 0.65605,-2.24103 l 0.65604,-0.65605 -1.98849,-2.7450238 c -1.09367,-1.509771 -1.85049,-2.883036 -1.68182,-3.051701 0.16867,-0.168666 1.24499,1.057132 2.39182,2.723996 l 2.08515,3.0306588 1.16265,-2.182307 c 1.53487,-2.8809668 1.55543,-1.8449038 0.0242,1.216731 -0.6558,1.311196 -1.36527,3.292876 -1.57661,4.403716 l -0.38426,2.01972 3.15109,-1.00768 3.15109,-1.00768 1.47768,0.75646 1.47769,0.75646 -2.08832,-0.3738 -2.08832,-0.37379 v 0.5651 c 0,0.31081 0.34698,0.91209 0.77107,1.33618 l 0.77107,0.77107002 h -0.73914 c -0.40653,0 -0.98475,-0.43888002 -1.28493,-0.97528002 l -0.5458,-0.97528 -2.00976,0.70061 -2.00976,0.70061 -0.59236,1.72043002 -0.59237,1.72042998 2.56216,10.6022302 2.56216,10.60223 0.19887,7.71071 c 0.10938,4.2409 0.35278,9.99351 0.54089,12.7836 l 0.34203,5.07287 1.09462,1.674 c 0.60205,0.9207 1.50689,2.08766 2.01077,2.59324 l 0.91614,0.91925 0.73305,-1.24053 c 1.25243,-2.11948 1.54228,-4.21007 1.62087,-11.69083 l 0.0761,-7.23752 -0.8032,-1.36035 -0.8032,-1.36035 0.83661,-0.858828 0.76979,0.277078 v -16.913 -16.9129802 l 0.91667,-8.5752058 c 0.50417,-4.716361 1.11257,-10.960702 1.352,-13.876316 l 0.43532,-5.301116 h 0.59175 0.59175 l 0.39009,1.9505 0.39011,1.950499 1.08853,0.582563 1.08852,0.582562 -0.58929,4.695732 -0.58928,4.695733 0.31456,7.9347158 0.31457,7.93471302 0.70771,0.70771 0.70771,0.70771 0.0195,-0.93171 0.0195,-0.93171002 0.65495,1.12448002 0.65495,1.12447998 h 1.92766 1.92766 l 1.95548,1.01122 1.95548,1.01121 0.42221,-0.42077 0.4222,-0.42077 0.32128,-18.6895018 0.32128,-18.689501 0.8032,-0.267437 c 0.44176,-0.147091 0.8032,-0.67707 0.8032,-1.17773 0,-1.450103 1.11083,-1.053352 1.49921,0.535466 0.19437,0.795167 0.70802,4.009822 1.14144,7.143678 l 0.78803,5.69792 1.31857,-2.485122 1.31856,-2.485122 0.25541,1.606399 0.25542,1.606398 -1.16675,7.241556 -1.16676,7.241562 0.78266,7.0385748 c 0.43046,3.87121002 0.95507,7.90069 1.16581,8.95438 l 0.38316,1.9158098 0.93516,-0.93515 c 1.07299,-1.0729898 2.05208,-1.1670498 3.38314,-0.3250098 l 0.9334,0.5904598 0.10823,1.8093 c 0.0595,0.99511 0.14552,2.4993104 0.19109,3.3426704 l 0.0828,1.53338 1.61612,-1.61612 1.61613,-1.61613 -0.39975,-1.0417304 -0.39975,-1.04174 h 1.27307 c 0.7002,0 2.49963,0.43275 3.99874,0.96167 l 2.72564,0.9616604 -0.45928,-4.3351002 c -0.2526,-2.38431 -0.58848,-4.46874 -0.7464,-4.63206 -0.15792,-0.16331998 -0.84836,0.0535 -1.53431,0.48192 -1.66131,1.03751 -1.94511,0.98286 -1.46007,-0.28114 l 0.40676,-1.06000998 -1.69493,0.4254 -1.69493,0.42539998 0.32013,-0.83423998 0.32013,-0.83425 -2.90749,-0.77763002 -2.90748,-0.77764 v -0.66519 c 0,-0.36586 0.50601,-0.85189 1.12447,-1.08007 0.61847,-0.22819 1.30902,-0.68989 1.53457,-1.026 l 0.41007,-0.61111 0.72488,0.448 c 0.39869,0.2464 0.589,0.66786 0.42292,0.93658 l -0.30195,0.48858 1.09467,-0.12248 c 1.03534,-0.11585 3.03475,-0.79745 4.18981,-1.42832 l 0.5249,-0.28668 -0.20362,1.12229 -0.20361,1.12231 0.70838,0.24924 0.70839,0.24925 0.34146,-10.8482518 0.34146,-10.848242 0.82895,-1.542969 0.82896,-1.542968 0.50393,1.874364 c 0.27716,1.030899 0.56741,3.265626 0.645,4.966061 0.0776,1.700431 0.33526,3.4059 0.5726,3.789919 l 0.43153,0.698224 0.41354,-4.379165 c 0.22744,-2.40854 0.41559,-6.058321 0.4181,-8.110623 0.003,-2.052303 0.33156,-5.030024 0.7312,-6.61716 l 0.72663,-2.885702 1.04041,0.198035 1.04041,0.198033 0.40868,5.455287 c 0.22478,3.000407 0.63102,11.455186 0.90276,18.788396 l 0.49408,13.33311182 0.70364,-0.01 c 1.0046,-0.0141 1.89519,-0.72139 3.22377,-2.56040002 l 1.16053,-1.6064 -0.34969,1.50415 -0.34968,1.50415 1.56151,-0.37967 c 0.85883,-0.20882 2.35668,-0.57221 3.32855,-0.80754 l 1.76704,-0.42786 -0.81428,0.98898 -0.81429,0.98898 0.40391,1.05257002 0.40391,1.05256998 -1.03538,-0.39731998 -1.03539,-0.39731 v 0.65776 c 0,0.36176998 0.36144,0.80360998 0.8032,0.98185998 l 0.8032,0.3241 -1.08655,0.0507 c -0.59761,0.0279 -1.27253,-0.25018 -1.49984,-0.61797 l -0.41327,-0.66869 -1.39169,0.42438 c -0.76543,0.23342 -2.29691,0.79431 -3.40329,1.24642 l -2.01161,0.82202 0.31257,1.63513 0.31257,1.6351198 1.90283,0.41793 1.90283,0.41793 1.13192,-1.02437 c 0.62257,-0.5633898 1.31696,-1.0243598 1.5431,-1.0243598 h 0.41115 l -0.3921,1.0218098 -0.39211,1.02182 2.12527,-0.21862 2.12526,-0.21861 0.26824,0.8032 0.26823,0.8032 h -1.01741 -1.01738 v 0.63032 0.6303204 l -1.6064,0.40318 c -1.72548,0.43306 -2.10671,1.25776 -0.8032,1.73749 l 0.8032,0.2956 -1.77539,0.47225 -1.77538,0.47226 -0.87405,-0.7254 -0.87405,-0.7254 -0.98204,0.37685 -0.98203,0.37684 -0.25602,2.68464 -0.25602,2.68464 0.84646,1.69677 0.84646,1.69676 1.35744,0.35498 1.35745,0.35499 -0.33813,0.88116 -0.33814,0.88117 1.20423,1.56676 1.20423,1.56677 0.0143,-0.85675 0.0143,-0.85675 0.75894,0.25298 c 0.4174,0.13914 1.0731,1.18607 1.45708,2.32651 l 0.69815,2.07354 2.17753,-2.24664 2.17751,-2.24663 -0.83994,-1.01207 -0.83994,-1.01208 0.84799,-1.58449 0.848,-1.5845 h 1.17654 1.17654 v -0.99793 c 0,-0.54886 -0.72288,-2.06174 -1.6064,-3.36196 -0.88352,-1.30021 -1.6064,-2.87521 -1.6064,-3.49998 l 4e-5,-1.13596 h 0.72783 c 0.40031,0 1.2696,0.62466 1.93176,1.38813 0.66216,0.76348 1.30637,1.2695 1.43159,1.12448 0.12522,-0.145 -0.5049,-2.43229 -1.40026,-5.0828504 l -1.62792,-4.8191998 -0.0469,-10.28095 -0.0469,-10.2809488 0.84387,-1.484525 0.84387,-1.484524 1.08112,0.205304 1.08113,0.205298 0.54169,4.170744 c 1.21823,9.3796118 3.66791,23.4162316 4.17514,23.9234616 l 0.54236,0.54236 0.82252,-0.99107 c 0.45242,-0.54509 1.25458,-0.99107 1.78262,-0.99107 h 0.96007 l -0.33729,1.76441 -0.33729,1.7644204 1.06558,-1.3137504 c 0.58607,-0.72255 1.56994,-1.50682 2.18639,-1.74283 0.61643,-0.236 1.71418,-1.37855 2.43943,-2.5389898 l 1.31863,-2.10989 -0.46084,-2.57023998 c -0.25347,-1.41363 -0.51837,-3.72685002 -0.58868,-5.14048002 -0.0703,-1.41363 -0.23778,-2.96782 -0.37219,-3.45376 l -0.24436,-0.883515 0.72139,-0.267234 0.72138,-0.267235 0.48466,1.472034 0.48467,1.47203 0.24829,-1.6064 c 0.13657,-0.883515 0.40621,-2.8318328 0.59921,-4.3295938 l 0.35092,-2.723206 0.97151,-0.971511 c 0.53434,-0.534333 1.36448,-0.971518 1.84477,-0.971518 h 0.87325 l 0.27847,1.445759 0.27847,1.445759 0.0875,-1.465923 0.0875,-1.465928 0.97202,-0.373 0.97203,-0.372999 0.98864,0.820497 0.98864,0.820503 -0.42874,3.431551 -0.42875,3.4315498 0.46893,4.33375 0.46892,4.33375002 3.46092,-3.79874002 c 0,0 3.02478,0.2092581 1.08104,3.43348808 -1.94375,3.22424002 -4.04498,6.17939192 -4.04498,6.65216192 0,0.8313198 3.55596,15.2798102 4.20912,17.1023902 l 0.32234,0.89944 1.56164,-1.46708 c 0.85889,-0.8069 2.3694,-2.63315 3.35666,-4.05833 l 3.32773,-4.727747 2.26899,0.848692 -4.76553,12.909965 -1.0623,0.88163 c -0.58426,0.48489 -1.42071,1.73405 -1.85878,2.7759 l -0.79648,1.89428 0.31971,0.83316 0.31972,0.83316 -0.33994,0.716739 0.5268,7.416011 0.41651,6.97478 0.67277,1.76704 4.89819,6.62314 m -68.79471,-4.17336 2.60562,-1.8875 0.5032,-5.66258 c 0.27676,-3.11441 0.50514,-7.83121 0.50751,-10.48177 l 0.005,-4.8192 -1.40792,-2.24895 c -0.77436,-1.23693 -1.40901,-2.6104 -1.41033,-3.05216 l -0.003,-0.8032 h 0.96384 0.96384 v -0.6224 -0.62239 l 0.96384,0.36986 0.96384,0.36986 v -0.63335 c 0,-0.34834 -0.86746,-0.99266 -1.92768,-1.43182 -2.25565,-0.93432 -2.24433,-0.9006 -0.84922,-2.52997 l 1.07846,-1.25956 0.52794,0.32629 0.52794,0.32628 v -1.04399 c 0,-0.57421 -0.29933,-1.60331 -0.66517,-2.28689 l -0.66517,-1.24287 h -3.19018 c -3.41827,0 -3.843,-0.33987 -2.06572,-1.65295 l 1.12448,-0.83078 -0.82995,-0.84108 -0.82996,-0.84109 -0.60967,0.95847 c -0.33531,0.52716 -1.07802,2.25965 -1.65045,3.84999 -1.45007,4.02852 -1.4643,4.06302 -2.12098,5.14047 -0.32309,0.53011 -1.2029,4.53838 -1.95513,8.90726 l -1.3677,7.94342 0.76809,7.92162 0.76808,7.92162 2.95,1.27142 c 3.78721,1.63225 3.31357,1.67059 6.32663,-0.51206 z m 30.5914,-0.44908 1.69402,-1.69403 v -6.82413 -6.82413 l -0.56266,-1.96188 -0.56266,-1.96187 0.88394,-1.20886 c 1.00161,-1.36977 1.16214,-3.28568 0.31896,-3.8068 l -0.56498,-0.34917 -3.24218,2.94117 -3.24217,2.94119 0.22355,6.70345 0.22356,6.70345 -0.60603,2.07205 -0.60603,2.07206 1.65522,1.44576 c 2.08889,1.82454 2.32818,1.81101 4.38746,-0.24826 z m -138.29913,-0.84878 2.30531,-1.90023 0.44273,-6.03143 0.44274,-6.03143 -0.90794,-2.63532 -0.90795,-2.63532 0.91201,-0.34998 0.91202,-0.34997 -0.19611,-2.90779 -0.19612,-2.90779 -0.64256,-0.0157 -0.64256,-0.0157 -0.20533,1.31057 c -0.11293,0.72084 -0.47354,1.31059 -0.80135,1.31059 -0.32781,0 -1.78169,1.07119 -3.230838,2.38042 l -2.63484,2.38041 0.34363,2.1175 0.34362,2.11751 h -0.44477 -0.44477 l 0.0298,7.00135 0.0297,7.00136 0.85536,1.03064 c 1.2035,1.45014 2.00661,1.29957 4.638178,-0.8696 z m 50.92126,1.07245 1.13207,-0.82779 0.57612,-4.47333 c 0.31687,-2.46033 0.58558,-7.09015 0.59714,-10.28849 l 0.021,-5.81516 -1.47265,-0.26994 -0.0695,-1.27221 0.77107,-0.77107 0.77107,-0.77107 v -3.20351 -3.20351 l -1.43747,-1.53012 -1.43748,-1.53013 1.58158,-1.19298 1.58157,-1.19299 -1.10794,-1.22426 c -1.25976,-1.39201 -1.45275,-2.72946 -0.39387,-2.72946 h 0.71407 l -0.42705,-2.4096 C 154.62937,9.5370216 154.29112,7.9547916 154.1126,7.3462516 l -0.32461,-1.1064598 -1.25515,0.7838498 -1.25515,0.78386 0.30873,0.80452 0.30872,0.80452 h -1.20541 -1.2054 l -2.8728,3.1952404 -2.8728,3.19525 -0.34367,1.78459 -0.34368,1.78459 0.84821,0.48041 0.84821,0.48041 -0.33646,1.28662 -0.33646,1.28664 h 0.76991 0.7699 l -1.33752,2.16416 -1.33753,2.16417 v 8.00016 8.00016 l 1.02639,3.45623 1.02639,3.45623 2.12216,2.12216 2.12215,2.12215 h 1.54784 c 0.85131,0 2.05727,-0.37251 2.67991,-0.82779 z m -65.364838,-5.43717 c -0.0415,-2.73891 0.17267,-6.33348 0.47603,-7.98793 l 0.55157,-3.00809 -1.32537,-1.68493 -1.32536,-1.68493 -0.76779,1.43462 -0.76779,1.43462 0.44763,7.07417 0.44764,7.07418 0.62298,1.16406 c 0.34265,0.64024 0.86892,1.16407 1.16949,1.16407 h 0.5465 z m 48.414408,-4.09217 v -6.89871 l -1.6064,-1.26359 c -0.88352,-0.69498 -1.6064,-1.58342 -1.6064,-1.97432 v -0.71072 h 0.97974 0.97974 l 0.65809,-1.73089 0.65808,-1.73088 -0.19207,-1.86809 -0.0149,-1.490124 1.03931,-2.464872 -1.21649,2.086896 -1.51475,2.05988 -1.51475,2.05988 -0.64608,4.83498 -0.64607,4.83498 0.64618,4.89676 c 0.3554,2.69321 0.98793,5.7642 1.40563,6.82443 l 0.75944,1.92768 0.91584,-1.2473 0.91584,-1.24729 z m 87.72474,-6.93071 -0.97921,-0.97921 v 2.3341 c 0,1.28375 0.2036,2.86375 0.45245,3.51112 l 0.45245,1.17703 0.52676,-2.53191 0.52677,-2.53192 z m 33.36749,-18.15608 1.63663,-0.7457 v -3.88073 -3.88072 l -0.53509,0.61043 c -0.47732,0.54452 -3.32026,7.71837 -3.32026,8.37832 0,0.41815 0.46599,0.317 2.21872,-0.4816 z m -146.54281,-1.92033 0.96723,-1.38093 -0.9473,-1.83187 c -1.16384,-2.25064 -1.42145,-2.27167 -2.21637,-0.18089 l -0.6277,1.65099 0.39198,1.56181 c 0.48348,1.9263 1.17366,1.97764 2.43216,0.18089 z m 138.54105,-1.59077 c 0,-0.53249 -0.33228,-1.58903 -0.7384,-2.34787 l -0.73839,-1.37971 -0.54372,1.46981 -0.54372,1.46981 0.6718,1.25525 0.67179,1.25527 0.61032,-0.3772 c 0.33568,-0.20746 0.61032,-0.81287 0.61032,-1.34536 z M 178.923,12.781972 v -0.48992 l 3.05216,0.0707 c 1.67869,0.0389 3.91962,0.26684 4.97984,0.50656 l 1.92768,0.43584 -0.22415,-3.7113504 -0.22415,-3.7113598 -0.65528,-0.80024 c -0.3604,-0.44013 -1.74162,-1.12572 -3.06937,-1.52353 l -2.4141,-0.72328 -2.31148,2.48736 -2.31149,2.4873698 -0.0174,2.7308804 -0.0174,2.73088 h 0.64256 c 0.3534,0 0.64255,-0.22046 0.64255,-0.48993 z m -30.49897,-5.0457304 1.5838,-1.03774 0.01,-1.0505798 0.01,-1.05058 0.52345,0.82497 0.52345,0.82496 1.07311,-0.41179 1.0731,-0.41179 v -1.85893 -1.85893 h -0.89417 -0.89418 l -0.40318,-1.60639998 -0.40318,-1.60640002 h -1.02654 -1.02655 l 0.3359,-1.28448 0.3359,-1.28448 -0.47514,-0.29366 -0.47515,-0.29365 -0.0429,0.77494 c -0.088,1.59071 -1.4981,10.4552198 -1.83531,11.5377998 -0.43432,1.39432 -0.0154,1.41242 2.0079,0.0867 z m 76.44198,0.39518 c -0.21842,-0.35341 -0.79672,-0.64256 -1.28512,-0.64256 -0.4884,0 -1.0667,0.28915 -1.28512,0.64256 l -0.39712,0.64256 h 1.68224 1.68224 z m -276.615323,11.6778804 -0.391909,0.63413 -0.391909,0.63412 1.420841,1.51241 1.420842,1.51242 0.818857,-0.31423 0.818857,-0.31422 0.685714,1.96704 c 0.377142,1.08187 0.931224,1.96704 1.231293,1.96704 0.300068,0 1.616292,-1.09651 2.924943,-2.43669 2.278361,-2.33324 3.027781,-3.98889 1.805551,-3.98889 -0.315597,0 -0.74317,-0.44134 -0.950164,-0.98076 l -0.376352,-0.98075 2.235284,-1.06593 2.235283,-1.06593 v -0.8576 c 0,-0.47168 -0.722879,-2.00272 -1.606399,-3.4023 -0.883519,-1.39959 -1.606398,-2.8963204 -1.606398,-3.3260804 v -0.78137 l 2.248958,2.1797704 2.248958,2.17977 v -0.69672 c 0,-0.3832 -0.766702,-3.2591604 -1.703778,-6.3910002 l -1.703783,-5.69427998 -0.288919,-8.35328002 -0.28892,-8.3532688 0.587787,-2.248958 0.587787,-2.248959 h 0.898886 0.89889 l 0.468593,2.248959 c 0.25773,1.236927 1.246687,6.297083 2.197688,11.2447868 0.951001,4.94771 2.14994,10.41742 2.664315,12.1549 l 0.935214,3.1590798 0.566313,-0.91012 0.566307,-0.9101098 1.29601,0.8031998 c 1.642344,1.01784 1.956003,1.00862 1.956003,-0.0575 V 5.7672818 l 1.580227,-0.72 1.580228,-0.72 1.310268,-2.56834 1.310269,-2.56833998 -0.896351,-3.84232002 c -0.943952,-4.046369 -0.72712,-5.277288 0.60799,-3.45142 l 0.8005,1.09475 0.439164,-4.4781758 c 0.241545,-2.463001 0.579987,-4.984192 0.752097,-5.602656 l 0.312926,-1.124479 h 1.229577 1.229576 l 0.422849,1.684785 0.422855,1.684791 0.843488,-2.006071 0.843488,-2.006064 h 1.276714 1.276715 l -0.379509,8.031993 -0.379508,8.0319968 h 0.393182 c 0.216253,0 1.745526,-1.44576 3.3983824,-3.2128 2.837639,-3.033665 4.114456,-3.87056 4.114456,-2.696835 0,0.283775 -1.584488,3.039605 -3.521091,6.124055 l -3.5210854,5.60809 0.933061,4.6388198 c 0.51318,2.5513504 1.5702744,6.7351704 2.3490944,9.2973704 l 1.416041,4.65856 0.69007,-0.0264 c 0.379541,-0.0145 2.10464,-1.93957 3.833559,-4.2779 l 3.14348999,-4.25149 -0.64482,-1.03251 -0.64481,-1.03252 0.306,-2.0849104 0.306,-2.08491 -0.83567999,-1.0069298 -0.83568,-1.00693 0.71125,-0.43957 0.71124999,-0.43958 0.15958,-3.84872998 c 0.0878,-2.11680002 0.11056,-5.36026002 0.0506,-7.20770002 l -0.10888,-3.3587918 -5.14047499,-3.602028 c -2.827261,-1.981114 -5.1404764,-3.86711 -5.1404764,-4.191095 v -0.589072 h 1.2921234 c 0.710665,0 2.598961,0.614286 4.196209,1.365085 l 2.904089,1.365079 0.99747,1.365799 0.99747999,1.365792 -0.46574,-7.068154 c -0.25617,-3.887485 -0.49696999,-7.93561 -0.53512999,-8.995833 l -0.0694,-1.927679 h 0.96382999 0.96384 l 1.09298001,4.497917 c 0.60114,2.473854 1.88621,8.46576 2.85573,13.315349 0.96952,4.8495888 1.86078,8.7194118 1.98058,8.5996018 0.11981,-0.1198 0.64217,-3.2202 1.1608,-6.8897508 0.51863,-3.669561 1.24349,-7.756246 1.61079,-9.081525 l 0.66782,-2.409598 h 0.9380496 0.93805 v 6.34692 6.346914 l 0.96384,0.7999148 0.96383,0.799916 0.029,-0.88188 0.029,-0.8818748 0.88268,1.9276788 0.88266,1.927675 0.0407,-1.28512 c 0.0224,-0.706811 -0.38269,-4.0320568 -0.90012,-7.3894298 -0.51744,-3.357373 -0.94598,-7.21273 -0.95231,-8.56746 l -0.0115,-2.463145 0.76303,0.254347 0.76304,0.254346 0.77458,2.530078 c 0.42602,1.391543 1.69582,5.532842 2.82178,9.202885 l 2.04719,6.6728088 1.23383,-2.028871 1.23383,-2.0288618 -1.69988,-2.568689 c -0.93493,-1.41277 -1.56726,-2.701288 -1.40518,-2.863368 0.16208,-0.162079 0.99956,0.84805 1.86107,2.244737 0.8615,1.39668 1.7209,2.547202 1.90976,2.556706 0.18886,0.0095 0.86762,-0.870193 1.50837,-1.954878 0.64074,-1.084692 1.30687,-1.830273 1.4803,-1.656846 0.17343,0.173426 -0.43305,1.59232 -1.34773,3.153097 l -1.66304,2.83778 v 1.3893038 1.3893 h 0.92201 c 0.5071,0 1.72471,-0.30519 2.7058,-0.67819 l 1.78378,-0.678198 1.47084,0.369158 1.47084,0.36916 v 0.65293 0.65292 l -1.2984,-0.69488 -1.29839,-0.69489 -0.63102,0.38999 -0.63102,0.39 0.71736,1.40676 0.71736,1.40676 -1.44681,-1.3916 -1.44682,-1.3916 -1.51777,0.69154 -1.51776,0.69154 v 1.05347 c 0,0.57941 -0.29076,1.34422 -0.64613,1.6996 l -0.64613,0.64612 0.61668,3.49839 c 0.33918,1.9241 0.9318,5.3778598 1.31694,7.6750098 0.38514,2.2971504 1.4402,6.8437004 2.34456,10.1034304 l 1.6443,5.92679 -0.99323,2.91497 -0.99323,2.91498 0.55902,3.68814 c 0.30746,2.02848 0.74884,6.00136 0.98083,8.82862 l 0.4218,5.14048 1.5577,1.80873 1.5577,1.80875 1.27857,-0.40581 1.27858,-0.40581 0.48342,-1.72421 0.48341,-1.72421 -0.16033,-7.05757 -0.16033,-7.05757 -0.73552,-2.22866 -0.73553,-2.22866 0.73521,-0.24507 0.73522,-0.24507 0.009,-8.46036 c 0.0112,-10.08857 2.22869,-45.032097 3.28572,-51.776671 l 0.74642,-4.76273 0.87075,1.190825 c 0.47893,0.654954 0.87076,1.534019 0.87076,1.953478 0,0.419459 0.54669,1.15936 1.21487,1.644226 l 1.21486,0.881574 -0.61922,5.140476 -0.61923,5.140476 0.25842,10.11762 c 0.14213,5.5646958 0.42423,10.28344582 0.62691,10.48611582 0.20267,0.20267 0.9618,-0.002 1.68696,-0.45491 l 1.31846,-0.82339002 0.48683,0.48681002 0.48681,0.48683 -0.77887,1.24716998 c -1.0659,1.70677 -0.99708,1.90505 0.66688,1.92129 0.79517,0.008 2.65223,0.56189 4.12683,1.2314 l 2.68106,1.21729 0.21045,-19.1703668 0.21045,-19.170369 0.48192,-0.481073 0.48192,-0.481073 0.4446,0.44459 c 0.24452,0.244525 1.07566,3.401099 1.84697,7.014609 l 1.40239,6.570016 0.45565,-1.285119 c 0.25061,-0.706815 0.72498,-1.863422 1.05416,-2.570238 l 0.59849,-1.285119 -0.329,4.497917 c -0.18096,2.473854 -0.5832,6.088251 -0.8939,8.031994 l -0.56489,3.5340768 0.67405,8.52219502 0.67403,8.52219978 2.20829,-0.41427 2.20828,-0.41428 0.56236,0.88791 0.56235,0.88791 0.033,3.2128004 0.033,3.2128 1.55486,-1.90257 1.55485,-1.90257 0.42327,0.42327 0.42328,0.42327 -1.35868,2.80665 c -0.7473,1.54366 -1.3587,3.30274 -1.3587,3.90906 v 1.10242 l -0.94636,0.36315 -0.94637,0.36315 -0.38256,2.34756 c -0.2104,1.29116 -0.79657,4.28412 -1.30259,6.65104 -0.50603,2.36692 -0.92004,5.62298 -0.92004,7.23571 0,2.49997 1.77963,15.39976 2.12951,15.43595 0.78872,0.0816 5.22499,2.74571 5.37887,3.23018 l 0.20569,0.64759 -1.26767,0.79167 -1.26767,0.79167 -0.6843,-1.27862 -0.6843,-1.27862 h -0.94123 -0.94123 v 0.64256 c 0,0.97539 -1.25053,0.76895 -2.41878,-0.3993 l -1.04187,-1.04187 -3.89207,0.33365 c -2.14064,0.18349 -4.39809,0.53869 -5.01655,0.78932 l -1.12448,0.4557 v -0.83053 c 0,-0.4568 0.62326,-1.49398 1.38503,-2.30484 l 1.38503,-1.4743 0.50434,-3.06503 c 0.2774,-1.68577 0.51715,-5.95655 0.53281,-9.49062 l 0.0285,-6.4256 -0.69333,0.96384 -0.69333,0.96384 0.54253,-1.28512 0.54254,-1.28512 v -7.49754 c 0,-4.12365 -0.17765,-7.67473 -0.39479,-7.89131 -0.21712,-0.21657 -1.88418,-0.57016 -3.70456,-0.78576 l -3.3098,-0.39199 -1.4359,1.1981 -0.90137,1.131273 0.26866,-0.847833 c 0.20224,-0.63822 0.8032,-1.14599 0.8032,-1.42872 v -0.51404 h -1.6064 -1.6064 v 0.91734 c 0,2.04718 1.37903,11.09453 1.95759,12.84315 l 0.61977,1.87315 -0.92932,1.02689 -0.92933,1.02689 0.60776,8.57144 0.60775,8.57145 1.34185,1.88443 1.34184,1.88444 -0.36112,0.94103 -0.3611,0.94103 -2.42977,0.0154 c -1.33637,0.008 -3.58637,0.28865 -5,0.62271 l -2.57024,0.60738 -0.71339,-0.944 c -0.86311,-1.14208 -2.20333,-1.19771 -4.42859,-0.18382 l -1.66838,0.76017 -2.11678,-0.76544 -2.11678,-0.76544 -13.29158,-0.0579 -13.2915796,-0.0579 -0.86049,0.71414 -0.86048,0.71414 -3.993801,-1.02317 -3.9938104,-1.02317 -1.121304,1.01477 c -1.417191,1.28254 -2.383267,1.29036 -2.86951,0.0232 l -0.380498,-0.99156 -1.252407,0.67028 c -0.688824,0.36862 -1.560571,0.67024 -1.937214,0.67024 h -0.684801 v -1.03171 c 0,-0.56746 0.711769,-1.87761 1.581705,-2.91148 l 1.581705,-1.87975 0.6916,-2.38964 0.691599,-2.38965 0.387457,-8.04663 0.387464,-8.04664 -1.666163,-5.76839 -1.666164,-5.7684 -0.318002,-5.46175 c -0.174905,-3.0039704 -0.347426,-5.6063304 -0.38339,-5.7830402 -0.05899,-0.28995 -3.811804,10.2845602 -3.844363,10.8325302 -0.0075,0.12667 0.746828,0.0395 1.676348,-0.19387 l 1.690028,-0.42417 -0.396138,1.47899 c -0.217873,0.81345 -0.40009,1.80348 -0.404915,2.20007 l -0.0088,0.72107 -2.464158,0.39404 -2.464152,0.39403 -1.069926,5.99001 c -1.842918,10.31769 -1.23622,16.79676 2.232413,23.84056 1.025994,2.08348 1.696819,3.95677 1.490731,4.16286 -0.206081,0.20609 -4.215556,0.3809 -8.909929,0.38847 l -8.535234,0.0137 -1.075436,0.89188 -1.075439,0.89188 -1.227018,-1.11043 -1.227018,-1.11044 -1.277091,0.40533 -1.277091,0.40534 -0.403313,-0.65257 -0.403312,-0.65257 -2.727837,0.37389 -2.727837,0.37389 -0.803232,-0.96784 -0.803231,-0.96783 -3.296807,0.86968 -3.296807,0.86968 -0.67796,-0.419 c -0.372878,-0.23045 -2.230235,-0.62965 -4.12746,-0.88711 -1.897226,-0.25746 -3.638935,-0.65754 -3.870464,-0.88907 l -0.420963,-0.42097 1.716064,-1.25006 c 0.943836,-0.68754 2.331253,-1.74829 3.083149,-2.35723 l 1.367084,-1.10716 0.383963,-10.32596 0.383964,-10.32596 -1.729757,-2.95161 -1.729757,-2.95161 0.652918,-0.40352 0.652918,-0.40353 1.624548,1.06445 1.624548,1.06444 v -1.73611 -1.73612 l -1.927678,-0.72761 -1.927679,-0.72763 v -0.89786 -0.89788 l 1.676416,0.32047 1.676414,0.32047 -0.420719,-2.63104 c -0.231396,-1.44707 -0.479767,-2.68396 -0.551936,-2.74865 -0.159143,-0.14266 -4.889596,-0.8248 -6.2355,-0.89917 l -0.963839,-0.0533 1.890093,-0.8063904 1.890092,-0.8064 -2.372012,-1.46598 -2.372012,-1.4659698 v -0.92793 -0.92794 l 2.088318,1.0667 c 1.148575,0.58667 2.917466,1.6500198 3.930868,2.3629798 l 1.84255,1.29629 -0.46148,-5.3986398 c -0.253815,-2.96924998 -0.690479,-5.64229 -0.970366,-5.94009 l -0.508885,-0.54144 -1.339643,0.71695 -1.339642,0.71696 0.412471,-1.07489 0.412472,-1.07488 -1.765891,0.44321 -1.765891,0.44321 0.363449,-0.58807 0.36345,-0.58808 -2.879848,-0.8063 -2.879849,-0.80631 v -0.55905 -0.55906 h 1.285119 1.285119 v -0.74215 -0.74215 l 1.175075,1.06343 c 0.646291,0.58489 1.586034,1.05901 2.088319,1.05359 l 0.913243,-0.01 -0.857518,-0.54357 -0.857518,-0.54357 1.339438,-0.35027 1.339437,-0.35027 v 0.83493 0.83494 l 1.016393,0.39002 c 0.559016,0.21452 1.281896,0.39003 1.606398,0.39003 h 0.590007 l 0.07602,-9.7990298 c 0.04181,-5.389468 0.276248,-10.666488 0.520966,-11.726711 l 0.444941,-1.927679 0.813721,5.504036 c 0.447547,3.02722 1.038375,5.867532 1.312952,6.311811 l 0.49923,0.807768 0.430702,-3.099007 c 0.236886,-1.704458 0.611907,-6.622438 0.833378,-10.928846 l 0.402676,-7.829834 0.518746,-0.839348 0.518746,-0.839349 0.671011,0.671011 0.671011,0.671012 0.621025,4.785373 0.621026,4.785373 0.01984,12.633697 0.01984,12.6336928 1.124479,-0.21526 c 0.618463,-0.1184 1.630495,-0.23739 2.248958,-0.26443 l 1.12448,-0.0492 0.0098,-1.12448 0.0098,-1.12448 1.257426,-0.15619 -0.06549,2.04078 2.606994,-0.18823 2.606991,-0.18823 v 1.01297 1.01298 l -1.124479,0.0452 -1.124479,0.0452 2.561015,0.72003 -0.378948,0.87037 -2.868374,-0.63806 -3.16905,-0.02 -2.409599,1.06223005 -2.409598,1.06224 V 3.3200018 6.2851416 l 5.152204,-0.1361998 c 0.09733,-0.003 1.029043,-2.26608 1.378206,-2.2254 l 0.933981,0.10881 c 0.01778,0.002 -1.275341,2.09612 -1.257498,2.09589 2.367454,-0.0301 4.271155,0.0582 4.431681,0.2186698 0.183801,0.18378 -1.050382,0.68329 -2.742606,1.10998 l -3.076771,0.77584 1.606398,0.8903 1.606399,0.8903004 -0.845442,0.0228 c -0.464993,0.0125 -1.381066,-0.2638904 -2.035717,-0.6142404 l -1.190275,-0.63702 -2.050681,0.41014 -2.050682,0.41013 0.278258,3.8468704 0.278257,4.01809 -0.653979,13.52732 0.977447,-0.0818 0.599467,-1.55523 1.337692,-0.0571 -0.03476,1.47031 -1.677671,2.0964 -0.198466,7.06816 -0.198466,7.06815 0.718423,2.45047 0.718424,2.45046 0.765161,-0.26266 0.765162,-0.26267 -0.170839,-2.1878 h 10e-7 c -0.181047,-2.31852 -0.162056,-7.79099 0.0455,-13.11131 l 0.125338,-3.2128 -0.459619,-3.65592 -0.356651,-0.75855 -1.884129,-0.32845 0.229188,-9.9421 z m 69.315195,32.12104 1.29796,-1.82281 0.66862,-4.12087 c 0.36775,-2.26648 0.67082,-6.18086 0.67349,-8.69863 l 0.005,-4.57778 -0.97629,-2.76708 -0.97628,-2.76709 0.655,-0.65501 0.65472,-0.65501 v -2.78561 -2.78561 l -1.04853,-1.60026 -1.04853,-1.60026 1.04853,-1.1586 c 1.33915,-1.47974 1.32564,-2.57771 -0.0504,-4.09821 l -1.09892,-1.21431 0.84756,-0.52382 0.84756,-0.5238204 -0.46532,-2.81039 c -0.25592,-1.5457098 -0.60523,-3.0460798 -0.77626,-3.3341598 l -0.31095,-0.52378 -1.17799,1.06607 -1.178,1.06607 0.34949,0.91075 0.34949,0.9107598 -1.06442,-0.40846 -1.06442,-0.4084598 -3.24406,3.2783098 -3.2440596,3.2783104 0.22094,3.38781 0.22094,3.38782 0.63651,0.45475 0.63652,0.45474 -1.27907,2.1155 -1.2791,2.11549 v 8.99583 8.99583 l 1.83718,3.74151 1.8371896,3.7415 2.5965,1.88089 c 1.42808,1.0345 2.82258,1.8809 3.09889,1.8809 0.27632,0 1.08648,-0.82027 1.80035,-1.82281 z m -53.653806,-1.39184 2.323727,-2.57209 v -7.10855 -7.10854 l -0.693772,-1.29633 -0.693778,-1.29633 1.056272,-1.16717 1.056271,-1.16716 -0.43401,-2.31346 -0.434004,-2.31346 h -0.571049 -0.571049 v 1.27649 1.2765 l -2.141073,0.8946 -2.141072,0.89459 -1.418037,1.80275 -1.418038,1.80274 0.407297,1.85441 0.407296,1.85441 -1.022627,0.75799 -1.022627,0.75799 0.71519,2.57024 0.715189,2.57023 -0.333329,4.15572 -0.333329,4.15571 1.32066,1.14541 c 1.902071,1.64965 2.624869,1.45233 5.225892,-1.42669 z m 35.45541639,-2.34378 0.45364,-3.63074 -0.40947,-4.84396 -0.40946,-4.84395 -1.28304999,-1.36575 c -1.646407,-1.75252 -1.61672,-2.11144 0.32335,-3.90943 l 1.60639999,-1.48876 v -3.36928 -3.36928 l -1.98599999,3.13159 -1.985993,3.13159 -0.342638,5.8294 -0.342632,5.82941 0.723953,4.6321 c 0.739637,4.73247 1.8238,7.89781 2.70509,7.89781 h 0.49318 z M 54.266452,14.648562 v -1.19359 l -3.73244,-0.39012 -3.73245,-0.39012 -1.88994,0.54068 -1.88996,0.54067 0.96384,0.3468 c 0.53011,0.19074 1.80387,0.5323 2.83057,0.75901 l 1.86673,0.41221 0.54286,-0.84046 0.6431,0.195209 0.61556,0.272537 c 0.84139,0.372525 1.68316,0.808184 2.97893,0.890024 l 0.8032,0.0507 z M -27.363957,9.9978816 c -1.057878,-2.55394 -1.709074,-2.34168 -2.227356,0.7260104 l -0.437994,2.59245 0.820703,0.9889 0.820709,0.98889 0.898523,-1.7149 0.898523,-1.71489 z m 81.377879,-0.31261 c -0.21452,-0.55902 -0.39003,-1.53545 -0.39003,-2.16983 v -1.15344 l -3.15896,-1.3589498 -3.15896,-1.35895 -1.98152,0.3963 -1.98151,0.3963 v 2.8168198 2.8168104 l 3.45059,-0.4055504 3.45058,-0.40555 1.20797,0.70167 c 0.66439,0.3859304 1.60035,0.7104804 2.07992,0.7212204 l 0.87195,0.0195 -0.39003,-1.0163904 z m -40.87387,-7.0155998 0.006,-0.64256 1.94188,-0.0692 c 2.42917,-0.0866 2.5148,-0.18202 2.10018,-2.34038998 l -0.33945,-1.76704002 h -0.88893 -0.88893 v -0.92741 c 0,-0.51007 -0.52506,-1.30523 -1.16679,-1.76704 -0.64174,-0.46179 -1.40498,-1.41793 -1.69609,-2.12475 l -0.52928,-1.28512 -1.16605,5.46176 c -0.6415296,3.00397002 -1.1794796,6.0989 -1.1956396,6.87763 l -0.0294,1.41587 1.9236196,-1.09459 c 1.05799,-0.60203 1.9261,-1.38375 1.92914,-1.73715 z m -87.493105,52.7042702 -1.467261,-1.68749 -0.762557,1.04285 -0.762559,1.04286 -2.113373,-1.09286 -2.113372,-1.09287 -4.68991,0.39644 -4.689909,0.39644 v -0.95564 c 0,-0.5256 0.242738,-0.95564 0.539419,-0.95564 0.597025,0 1.863651,-2.49359 2.774319,-5.46176 0.325288,-1.06022 0.867714,-6.12038 1.205392,-11.24479 l 0.613959,-9.31711 -0.686124,-6.74688 c -0.377368,-3.71078 -0.887712,-9.2912 -1.134096,-12.4009304 l -0.447971,-5.6540598 -0.944935,-0.584 c -0.519715,-0.32119998 -2.353494,-0.92190998 -4.075065,-1.33490998 l -3.130129,-0.75091002 -0.570182,0.88466002 -0.200386,0.99513 -0.369796,-0.11048 -0.57072,-0.88553 -0.570719,-0.88551002 -1.683832,-0.0722 -2.71794,-0.51428 0.16414,-0.89227 1.69162,0.0616 1.774299,0.4396 -0.414988,-1.19595 -0.414991,-1.19597 0.877835,0.019 0.901456,2.21594 3.39073,0.63624 c 1.864902,0.34993 3.986017,0.95483002 4.71359,1.34422002 l 1.322859,0.70797 0.426887,-0.42669 0.426887,-0.42668 0.321279,-18.74152282 0.32128,-18.74152 0.526319,-0.813681 0.52632,-0.81368 0.554929,0.342965 c 0.53448,0.330326 1.400326,4.070618 2.268226,9.79831 l 0.413802,2.730878 h 0.516422 c 0.284032,0 0.697852,-0.72288 0.919601,-1.606399 l 0.403181,-1.606399 h 0.686797 0.686797 l -0.347601,2.409598 c -0.19118,1.325279 -0.691239,5.011964 -1.111242,8.192634 l -0.763642,5.783035 0.395602,8.7343418 0.395602,8.73435 0.554601,1.49922 0.5546,1.4992298 0.364836,-1.3951298 0.364836,-1.39514 1.112181,-0.42678 1.112183,-0.42679 1.033869,0.65215 c 0.568627,0.35868 1.063587,1.05529 1.099908,1.54802 0.03632,0.49273 0.127088,2.1970598 0.2017,3.7873898 l 0.135658,2.8915204 0.765412,-1.18014 c 0.420977,-0.64907 1.103211,-1.6606604 1.516076,-2.2479504 l 0.750663,-1.06781 0.427506,0.42751 0.427507,0.4275 -1.338809,3.0266104 c -0.736346,1.66463 -1.33881,3.30568 -1.33881,3.64677 0,0.34109 -0.578304,1.35536 -1.285119,2.25393 l -1.285119,1.63376 v 1.44786 c 0,0.79633 -0.730464,3.96855 -1.623252,7.04937 l -1.623253,5.60151 0.664724,6.51836 c 0.365597,3.58511 0.831715,7.41881 1.035818,8.51935 l 0.371096,2.00098 2.514248,1.41309 c 1.382836,0.77719 2.797712,1.94274 3.144169,2.5901 l 0.629921,1.17702 -0.913069,0.75778 -0.91307,0.75778 z m -17.56278,-43.41006 c -0.812425,-0.16684 -1.9836,-0.37517 -3.14446,-0.5636 -0.06151,-0.01 -2.522983,2.02487 -2.522983,2.02487 0.12535,-0.12785 -0.691412,-0.1289 -0.366471,-0.6155 0.174613,-0.26148 1.99162,-1.55141 1.899436,-1.5655 -0.508783,-0.0778 -0.993241,-0.15161 -1.420633,-0.20457 -1.013288,-0.12556 -2.680126,-0.0159 -2.984876,-0.39648 l -0.3284,-1.2558404 -0.32841,-1.25584 h 0.55047 c 0.30276,0 0.814264,0.47136 1.136674,1.04748 0.612121,1.6265504 2.192413,1.1404404 3.726646,1.2292404 1.290144,0.0747 2.268382,0.17051 3.164921,0.33965 0.06817,0.0129 -0.916502,-1.0095204 -0.849173,-0.9957804 0.116613,0.0238 -0.06899,-0.47357 0.31087,-0.18623 0.374502,0.28329 1.314537,1.3512904 1.427188,1.3804704 0.899473,0.23297 5.540674,-0.2093 5.18038,0.98389 l -0.184863,0.61222 -1.732239,-0.0253 c -0.530238,-0.008 -2.120447,-0.26285 -3.534077,-0.55315 z"
       id="path860" />
  </g>
  <path
     d="m -1e-5,94.873156 c 5.381763,-1.18443 5.795111,-2.15822 8.383826,-2.11113 78.14647,1.42158 153.067814,1.1139 257.467894,2.00816 6.67261,0.28713 12.46798,-0.35654 18.77185,-0.13021 31.60335,1.13464 58.75339,2.30922 96.96589,1.115 0.65204,-0.0204 2.78466,-0.73113 3.72134,-0.81858 v 5.641464 H 0 Z"
     style="fill:#000000;stroke-width:0.485142;stroke-linecap:round;stroke-linejoin:round;stroke-dashoffset:8.69291;paint-order:stroke fill markers"
     id="rect832" />
</svg>
